<svg width="41" height="40" viewBox="0 0 41 40" fill="none" xmlns="http://www.w3.org/2000/svg">
<path d="M30.6005 38.8724H19.1713C18.4155 38.8724 17.7887 38.2471 17.7887 37.493C17.7887 36.7389 18.4155 36.1136 19.1713 36.1136H30.6005C32.573 36.1136 34.5086 34.4765 34.8404 32.5269L37.2921 17.8867C37.5134 16.5625 36.7762 14.6679 35.7439 13.8402L22.9687 3.651C21.494 2.47389 19.0422 2.47387 17.5859 3.63259L4.81103 13.8402C3.76028 14.6863 3.04135 16.5625 3.26256 17.8867L3.77872 20.9949C3.90776 21.7489 3.39162 22.4662 2.63581 22.5766C1.88001 22.7237 1.17952 22.1904 1.05048 21.4363L0.534325 18.3465C0.147206 16.0659 1.25328 13.1415 3.07827 11.6885L15.8532 1.48061C18.3233 -0.505767 22.2129 -0.487356 24.7016 1.49902L37.4765 11.6885C39.283 13.1415 40.3891 16.0659 40.0204 18.3465L37.5687 32.9867C37.0156 36.2421 33.9002 38.8724 30.6005 38.8724Z" fill="black"/>
<path d="M7.3741 39.2219C6.61829 39.2219 6.00996 38.6149 5.99153 37.8792C5.93623 35.3963 4.2956 33.7593 1.80697 33.7042C1.05117 33.6858 0.44282 33.0604 0.461254 32.288C0.479688 31.5339 1.08802 30.9453 1.84382 30.9453H1.88067C5.84404 31.0373 8.68293 33.8513 8.75667 37.8057C8.7751 38.5597 8.16675 39.2035 7.41095 39.2219C7.39251 39.2219 7.39253 39.2219 7.3741 39.2219Z" fill="black"/>
<path d="M12.9044 39.222C12.1486 39.222 11.5218 38.6151 11.5218 37.861C11.5033 36.6471 11.3006 35.4884 10.9319 34.4032C9.99173 31.7179 7.9824 29.7314 5.291 28.775C4.20338 28.3887 3.04202 28.1866 1.82536 28.1866C1.06955 28.1866 0.442808 27.5612 0.461242 26.7888C0.461242 26.0347 1.08801 25.4277 1.84381 25.4277H1.86225C3.39229 25.4461 4.84858 25.7036 6.21271 26.1818C9.69678 27.4141 12.296 30.0074 13.5311 33.4836C14.0104 34.8446 14.2685 36.316 14.2869 37.8242C14.2869 38.5967 13.6786 39.222 12.9044 39.222Z" fill="black"/>
<path d="M1.84343 39.6819C0.811107 39.6819 0 38.8542 0 37.8427C0 36.8311 0.829541 36.0034 1.84343 36.0034C2.85731 36.0034 3.68685 36.8311 3.68685 37.8427C3.68685 38.8542 2.87574 39.6819 1.84343 39.6819Z" fill="black"/>
</svg>
