<svg width="386" height="148" viewBox="0 0 386 148" fill="none" xmlns="http://www.w3.org/2000/svg">
<path opacity="0.3" d="M366.836 31.3515C366.836 31.3515 362.847 11.885 349.55 13.2145C343.507 13.8108 339.465 16.8395 335.96 21.5616C331.464 27.5893 329.851 24.0836 323.421 26.063C317.664 27.8517 318.548 32.6989 315.001 33.5813C311.455 34.4637 308.803 30.487 303.925 31.3694C299.047 32.2518 296.396 37.1228 296.396 37.1228H385C384.769 35.4679 384.059 33.9164 382.957 32.659C381.854 31.4017 380.408 30.4934 378.796 30.0457C373.04 28.2571 370.377 32.681 366.836 31.3515Z" stroke="#6E00FF" stroke-miterlimit="10"/>
<path opacity="0.3" d="M310.451 75.3026C310.451 75.3026 306.463 55.8362 293.165 57.1657C287.123 57.7619 283.08 60.7907 279.575 65.5128C275.079 71.5405 273.467 68.0348 267.036 70.0142C261.28 71.8028 262.164 76.6501 258.617 77.5325C255.07 78.4149 252.419 74.4381 247.541 75.3205C242.662 76.2029 240.011 81.074 240.011 81.074H328.615C328.384 79.419 327.674 77.8675 326.572 76.6102C325.47 75.3529 324.024 74.4446 322.411 73.9969C316.655 72.2083 313.992 76.6322 310.451 75.3026Z" stroke="#6E00FF" stroke-miterlimit="10"/>
<path d="M17.748 103.056C17.3641 103.471 17.0594 103.963 16.8515 104.506C16.6436 105.049 16.5365 105.631 16.5365 106.219C16.5365 106.807 16.6436 107.389 16.8515 107.932C17.0594 108.475 17.3641 108.967 17.748 109.381C18.5161 110.206 19.552 110.669 20.6314 110.669C21.7107 110.669 22.7466 110.206 23.5147 109.381L26.3981 106.245L23.5147 103.109C22.753 102.277 21.7206 101.805 20.6412 101.795C19.5618 101.785 18.5224 102.239 17.748 103.056ZM21.9289 104.813C22.1858 105.092 22.3607 105.448 22.4317 105.835C22.5027 106.222 22.4664 106.624 22.3275 106.989C22.1886 107.354 21.9533 107.666 21.6514 107.885C21.3495 108.105 20.9945 108.222 20.6314 108.222C20.2682 108.222 19.9132 108.105 19.6113 107.885C19.3094 107.666 19.0741 107.354 18.9352 106.989C18.7963 106.624 18.7601 106.222 18.831 105.835C18.902 105.448 19.077 105.092 19.3338 104.813C19.6781 104.439 20.1448 104.229 20.6314 104.229C21.118 104.229 21.5846 104.439 21.9289 104.813Z" fill="#6E00FF"/>
<path d="M155.151 30.3174C155.151 31.2995 155.419 32.2596 155.92 33.0762C156.422 33.8928 157.135 34.5292 157.969 34.9051C158.803 35.2809 159.721 35.3793 160.607 35.1877C161.492 34.9961 162.306 34.5231 162.944 33.8286C163.583 33.1342 164.018 32.2494 164.194 31.2861C164.37 30.3229 164.279 29.3244 163.934 28.4171C163.588 27.5097 163.003 26.7342 162.252 26.1885C161.502 25.6429 160.619 25.3517 159.716 25.3517C158.505 25.3517 157.344 25.8749 156.488 26.8061C155.632 27.7374 155.151 29.0004 155.151 30.3174ZM162.686 30.3174C162.686 30.9563 162.512 31.5808 162.185 32.1121C161.859 32.6433 161.395 33.0573 160.853 33.3018C160.31 33.5463 159.713 33.6103 159.137 33.4856C158.561 33.361 158.031 33.0533 157.616 32.6015C157.201 32.1498 156.918 31.5742 156.803 30.9476C156.689 30.321 156.748 29.6714 156.972 29.0812C157.197 28.4909 157.578 27.9864 158.066 27.6314C158.555 27.2765 159.129 27.087 159.716 27.087C160.504 27.087 161.259 27.4274 161.816 28.0332C162.373 28.639 162.686 29.4606 162.686 30.3174Z" fill="#6E00FF"/>
<path d="M159.717 28.3516C160.074 28.3516 160.423 28.4669 160.721 28.6829C161.018 28.8988 161.249 29.2058 161.386 29.5649C161.523 29.924 161.559 30.3192 161.489 30.7004C161.419 31.0817 161.247 31.4319 160.994 31.7067C160.742 31.9816 160.42 32.1687 160.069 32.2446C159.719 32.3204 159.355 32.2815 159.025 32.1328C158.695 31.984 158.413 31.7321 158.214 31.4089C158.016 31.0857 157.91 30.7057 157.91 30.317C157.91 29.7957 158.1 29.2958 158.439 28.9273C158.778 28.5587 159.238 28.3516 159.717 28.3516Z" fill="#6E00FF"/>
<path opacity="0.2" d="M41.8739 0.0522748L32.5695 0.0522752L59.781 31.0278L49.4001 63.7492L-4.82089e-06 37.833L-4.45995e-06 46.0813L28.6574 60.2366L8.29894 132.656L8.29894 140.758L13.2972 140.758L24.0437 107.876L56.5321 127.237L66.7112 81.8139L76.2078 87.2082L62.2478 143.487L69.2069 143.487L82.3307 90.6998L105.755 103.987L100.142 124.968L112.506 148L120.58 148L107.476 123.787L111.839 107.447L154.67 131.753L169.204 131.753L141.194 115.852L147.038 94.2229L172.606 94.2229L200.008 51.4782L200.008 34.4275L168.377 86.905L149.009 86.905L172.462 0.0522691L165.445 0.0522694L158.419 25.968L118.289 18.0438L122.634 -5.35455e-06L115.684 -5.05112e-06L103.948 48.6848L65.6731 27.0866L41.8739 0.0522748ZM52.0626 116.239L25.8412 100.558L34.7995 63.676L60.5692 78.3117L52.0626 116.239ZM116.578 25.1944L156.545 33.035L135.11 112.403L95.9412 90.1771L104.592 81.6675L109.398 54.9363L116.578 25.1944ZM102.352 56.0758L98.4211 77.8308L89.5396 86.5391L55.4268 67.1781L65.5386 35.314L102.352 56.0758Z" fill="#6E00FF"/>
<path opacity="0.4" d="M29.3013 47.3153L47.8813 57.7694L55.4267 31.0173L41.374 16.2562C37.93 26.8648 33.8984 37.2368 29.3013 47.3153Z" fill="#B35DD1"/>
<path opacity="0.4" d="M59.5309 65.9027L67.2301 41.0637L91.1254 53.4832L83.6762 78.6985L59.5309 65.9027Z" fill="#B35DD1"/>
<path opacity="0.4" d="M100.67 41.0428C100.026 40.8338 77.2072 28.8429 77.2072 28.8429L82.2919 11.0709L108.1 7.93467L100.67 41.0428Z" fill="#B35DD1"/>
<path opacity="0.4" d="M136.061 77.4231C135.773 77.0467 112.396 68.7985 112.396 68.7985L118.625 30.3169L149.835 36.7253L136.061 77.4231Z" fill="#B35DD1"/>
<path opacity="0.4" d="M122.701 98.1326L126.219 86.5285L136.062 92.3305C136.062 92.3305 133.486 104.551 132.726 104.551C131.967 104.551 122.701 98.1326 122.701 98.1326Z" fill="#B35DD1"/>
<path opacity="0.4" d="M152.306 97.4951C152.94 97.7774 171.203 101.802 183.381 104.468L183.381 130.948L148.893 114.65L152.306 97.4951Z" fill="#B35DD1"/>
<path opacity="0.4" d="M175.086 0.0524783L183.41 0.0524779L183.41 21.9225L174.038 52.7621C170.193 51.7794 166.464 50.6713 162.753 49.3541L175.086 0.0524783Z" fill="#B35DD1"/>
<path opacity="0.4" d="M161.735 53.295L156.199 75.395L166.186 78.5312L172.837 56.6508C169.089 55.6786 165.378 54.6332 161.735 53.295Z" fill="#B35DD1"/>
<path opacity="0.4" d="M135.1 0.0523986L156.381 0.0523976L152.306 20.3856L132.159 16.2458L135.1 0.0523986Z" fill="#B35DD1"/>
<path opacity="0.4" d="M94.3165 121.738L80.7636 115.288L85.6273 97.3278L99.7857 104.552L94.3165 121.738Z" fill="#B35DD1"/>
<path opacity="0.4" d="M47.1697 105.377L32.4153 96.5228L38.8265 72.4993L54.5805 80.5594L47.1697 105.377Z" fill="#B35DD1"/>
<path opacity="0.4" d="M13.278 57.3722C17.4204 59.5989 22.6777 62.4738 23.0141 62.9338C23.3505 63.3937 16.4304 93.0939 13.278 106.224L13.278 57.3722Z" fill="#B35DD1"/>
<path opacity="0.4" d="M28.0901 115.298L59.7039 131.753L24.1588 131.753L28.0901 115.298Z" fill="#B35DD1"/>
<path d="M154.228 28.3413L154.228 28.5294C154.184 28.8005 154.043 29.0414 153.836 29.2C153.629 29.3585 153.372 29.4218 153.123 29.3762L115.165 22.2256C113.743 27.2854 106.514 53.4938 102.574 78.8346C102.54 79.0624 102.439 79.2719 102.285 79.4305L90.2606 91.4841C90.1168 91.6291 89.9358 91.7229 89.7416 91.7528C89.5475 91.7827 89.3496 91.7473 89.1744 91.6514L64.414 77.6638L55.2057 121.926C55.1723 122.084 55.1056 122.232 55.0109 122.357C54.9162 122.482 54.7961 122.581 54.66 122.647C54.5239 122.713 54.3756 122.744 54.2267 122.736C54.0779 122.729 53.9326 122.685 53.8024 122.606L28.8113 107.719C28.7002 107.651 28.6026 107.559 28.5242 107.449C28.4457 107.34 28.3879 107.214 28.3539 107.08C28.32 106.946 28.3107 106.806 28.3265 106.668C28.3423 106.531 28.3829 106.397 28.446 106.277C28.5091 106.156 28.5935 106.05 28.6943 105.964C28.7952 105.879 28.9104 105.816 29.0336 105.779C29.1568 105.742 29.2854 105.732 29.4122 105.749C29.539 105.767 29.6614 105.811 29.7725 105.879L53.6486 120.149L62.8569 75.9179C62.8888 75.7611 62.9535 75.6145 63.0459 75.4893C63.1383 75.364 63.256 75.2637 63.3899 75.1959C63.5238 75.1282 63.6702 75.0949 63.8178 75.0986C63.9654 75.1024 64.1102 75.1431 64.241 75.2175L89.4916 89.4978L100.747 78.176C105.13 50.0754 113.512 21.0548 113.598 20.7621C113.669 20.5225 113.817 20.3187 114.015 20.1881C114.213 20.0576 114.447 20.0089 114.675 20.0512L153.421 27.3168C153.645 27.3563 153.849 27.4808 153.997 27.6684C154.145 27.8559 154.227 28.0943 154.228 28.3413Z" fill="#6E00FF"/>
<path d="M174.375 14.2191C170.468 10.0226 165.171 7.66541 159.649 7.66541C154.126 7.66541 148.83 10.0226 144.923 14.2191C141.093 18.4084 138.948 24.0472 138.948 29.9209C138.948 35.7946 141.093 41.4334 144.923 45.6227L159.527 61.3245L174.131 45.6227C177.993 41.4678 180.183 35.8483 180.228 29.9745C180.274 24.1007 178.172 18.4427 174.375 14.2191ZM166.196 37.0914C164.902 38.4799 163.254 39.4248 161.46 39.8068C159.667 40.1887 157.808 39.9905 156.119 39.2371C154.43 38.4838 152.987 37.2092 151.971 35.5743C150.956 33.9394 150.414 32.0177 150.414 30.0518C150.414 28.0859 150.956 26.1641 151.971 24.5292C152.987 22.8943 154.43 21.6197 156.119 20.8664C157.808 20.1131 159.667 19.9149 161.46 20.2968C163.254 20.6787 164.902 21.6236 166.196 23.0121C167.081 23.943 167.784 25.0545 168.264 26.2813C168.743 27.5081 168.991 28.8256 168.991 30.1564C168.991 31.4873 168.743 32.8048 168.264 34.0316C167.784 35.2584 167.081 36.3699 166.196 37.3008L166.196 37.0914Z" fill="#6E00FF"/>
</svg>
