<svg width="44" height="48" viewBox="0 0 44 48" fill="none" xmlns="http://www.w3.org/2000/svg">
<path d="M42.0919 16.4855V31.5433C42.0919 34.0089 40.768 36.2984 38.6278 37.5532L25.5214 45.1041C23.3812 46.3369 20.7335 46.3369 18.5711 45.1041L5.46489 37.5532C3.32463 36.3204 2.00076 34.0309 2.00076 31.5433V16.4855C2.00076 14.0199 3.32463 11.7303 5.46489 10.4755L18.5711 2.9246C20.7114 1.6918 23.3591 1.6918 25.5214 2.9246L38.6278 10.4755C40.768 11.7303 42.0919 13.9979 42.0919 16.4855Z" stroke="black" stroke-width="3" stroke-linecap="round" stroke-linejoin="round"/>
<path d="M22.0573 21.8132C24.8968 21.8132 27.1983 19.5165 27.1983 16.6837C27.1983 13.8508 24.8968 11.5544 22.0573 11.5544C19.2181 11.5544 16.9164 13.8508 16.9164 16.6837C16.9164 19.5165 19.2181 21.8132 22.0573 21.8132Z" stroke="black" stroke-width="3" stroke-linecap="round" stroke-linejoin="round"/>
<path d="M30.8831 34.2734C30.8831 30.3108 26.9336 27.0967 22.0573 27.0967C17.1811 27.0967 13.2315 30.3108 13.2315 34.2734" stroke="black" stroke-width="3" stroke-linecap="round" stroke-linejoin="round"/>
</svg>
