<svg width="391" height="174" viewBox="0 0 391 174" fill="none" xmlns="http://www.w3.org/2000/svg">
<path d="M9.56322 38.1629C21.7498 16.902 52.4067 -7.91704 94.4636 2.42089C136.521 12.7588 164.936 34.6287 160.281 72.6787C155.625 110.729 131.159 142.344 78.4587 143.269C25.7585 144.195 -17.1611 84.7837 9.56322 38.1629Z" fill="#D496EA"/>
<path d="M34.5662 121.348L41.1838 123.271L36.266 117.782C38.9619 114.941 40.5055 111.286 40.6214 107.468" stroke="black" stroke-linecap="round" stroke-linejoin="round"/>
<path d="M26.5359 123.768C28.754 123.098 30.8472 122.101 32.7391 120.815" stroke="black" stroke-linecap="round" stroke-linejoin="round"/>
<path d="M1 112.108C2.94935 121.007 13.3262 126.489 24.1808 124.357" stroke="black" stroke-linecap="round" stroke-linejoin="round"/>
<path d="M2.58303 102.074C2.16603 102.824 1.81222 103.605 1.5249 104.407" stroke="black" stroke-linecap="round" stroke-linejoin="round"/>
<path d="M40.3044 104.382C38.3593 95.483 27.9783 90.0015 17.1279 92.1372C12.2007 93.054 7.76034 95.5585 4.56067 99.2255" stroke="black" stroke-linecap="round" stroke-linejoin="round"/>
<path d="M28.7891 101.121C25.6643 97.8952 21.4061 100.131 19.6344 103.405C16.7082 101.001 11.875 100.412 10.2428 104.511C7.48581 111.415 16.9154 115.626 21.2793 117.149C21.774 117.325 22.18 117.473 22.5182 117.581C22.7931 117.361 23.1145 117.08 23.5035 116.744C26.954 113.791 34.0579 106.562 28.7891 101.121Z" stroke="black" stroke-linecap="round" stroke-linejoin="round"/>
<path d="M125.662 14.0574L119.273 11.537L123.607 17.4512C120.644 20.0318 118.744 23.5247 118.245 27.3083" stroke="black" stroke-linecap="round" stroke-linejoin="round"/>
<path d="M133.891 12.3701C131.616 12.8376 129.432 13.6382 127.417 14.7431" stroke="black" stroke-linecap="round" stroke-linejoin="round"/>
<path d="M158.133 26.3063C157.097 17.2626 147.324 10.8515 136.305 12.0015" stroke="black" stroke-linecap="round" stroke-linejoin="round"/>
<path d="M155.541 36.1483C156.024 35.4392 156.448 34.6954 156.809 33.9237" stroke="black" stroke-linecap="round" stroke-linejoin="round"/>
<path d="M118.245 30.4098C119.281 39.4455 129.053 45.8486 140.073 44.7146C145.069 44.2494 149.742 42.1613 153.299 38.8043" stroke="black" stroke-linecap="round" stroke-linejoin="round"/>
<path d="M142.823 35.9389C147.709 33.4606 149.549 27.6983 146.934 23.0685C144.318 18.4387 138.238 16.6946 133.352 19.1729C128.466 21.6512 126.625 27.4135 129.241 32.0433C131.856 36.6731 137.937 38.4172 142.823 35.9389Z" stroke="black" stroke-linecap="round" stroke-linejoin="round"/>
<path d="M134.276 28.7588L137.278 31.4435L142.285 23.2733" stroke="black" stroke-linecap="round" stroke-linejoin="round"/>
<path opacity="0.2" d="M75.819 98.2759C75.819 98.2759 73.9997 119.138 76.6316 124.199C79.2635 129.259 80.582 163.836 79.4015 168.185C79.4015 168.185 87.8746 170.209 91.227 167.332C94.5795 164.456 99.736 167.226 108.23 164.427C116.723 161.628 110.596 99.5011 110.596 99.5011L110.856 76.9004L96.8485 65.0746L75.819 98.2759Z" fill="black" fill-opacity="0.7"/>
<path d="M87.1143 108.31C87.0614 108.459 86.9761 108.596 86.8639 108.712C85.0548 110.334 77.3329 112.136 70.6995 113.433C65.2058 114.513 60.4786 115.245 60.4786 115.245C60.4786 115.245 56.84 86.5906 56.84 83.5785C56.84 80.5663 50.9731 31.8008 50.9731 31.8008L65.0371 31.2245L83.6954 30.4594C83.6954 30.4594 83.8078 31.762 83.9969 34.0381C85.2285 48.537 89.46 102.591 87.1143 108.31Z" fill="#E5D1FE"/>
<path opacity="0.2" d="M87.114 108.31L70.6992 111.492L64.5003 112.697C62.8189 111.133 61.5362 111.104 61.5362 111.104L61.0252 106.722L60.2228 99.5496L53.1602 36.4497C54.6933 35.4473 55.4496 33.2536 55.4496 33.2536L64.904 32.9291L81.283 32.3625L83.9864 34.0187C85.2283 48.537 89.4597 102.591 87.114 108.31Z" fill="black" fill-opacity="0.7"/>
<path d="M87.114 108.31L70.6992 111.492L64.5003 112.697C62.8189 111.133 61.5362 111.104 61.5362 111.104L61.0252 106.722L60.2228 99.5496L53.1602 36.4497C54.6933 35.4473 55.4496 33.2536 55.4496 33.2536L64.904 32.9291L81.283 32.3625L83.9864 34.0187C85.2283 48.537 89.4597 102.591 87.114 108.31Z" stroke="black" stroke-linecap="round" stroke-linejoin="round"/>
<path d="M62.4052 89.7337L67.8836 89.724L67.8887 91.3469L66.3658 91.8604L62.8549 92.2237L62.4052 89.7337Z" fill="#E5D1FE" stroke="black" stroke-linecap="round" stroke-linejoin="round"/>
<path d="M62.7413 93.0752L66.7684 92.9445L67.8007 93.4093L67.7496 95.5643L63.048 95.6128L62.7413 93.0752Z" fill="#E5D1FE" stroke="black" stroke-linecap="round" stroke-linejoin="round"/>
<path d="M63.3859 96.5183L67.9853 96.2034L67.9342 97.8359L65.7112 98.582L63.3604 98.456L63.3859 96.5183Z" fill="#E5D1FE" stroke="black" stroke-linecap="round" stroke-linejoin="round"/>
<path d="M63.6623 99.2688L67.3776 99.448L67.7149 100.349L67.1732 101.342L63.8514 101.546L63.2791 100.01L63.6623 99.2688Z" fill="#E5D1FE" stroke="black" stroke-linecap="round" stroke-linejoin="round"/>
<path d="M67.9445 102.422L68.4555 103.831C68.5371 103.98 68.5797 104.146 68.5797 104.315C68.5797 104.483 68.5371 104.65 68.4555 104.799C68.3605 104.902 68.2392 104.98 68.1032 105.026C67.9672 105.072 67.821 105.084 67.6788 105.061C67.3926 105.037 67.1115 104.945 66.8253 104.93C65.9616 104.896 65.1695 105.569 64.3212 105.414C63.989 104.543 63.1509 103.264 64.2854 102.872C64.4949 102.809 68.0672 102.741 67.9445 102.422Z" fill="#E5D1FE" stroke="black" stroke-linecap="round" stroke-linejoin="round"/>
<path d="M67.9299 106.387C68.011 106.723 68.069 107.062 68.1037 107.404C68.1555 107.621 68.148 107.846 68.0818 108.059C68.0156 108.272 67.8929 108.465 67.7255 108.62C67.5075 108.733 67.2637 108.795 67.0151 108.799L64.0613 109.051C64.0182 108.522 64.0097 107.992 64.0357 107.463C64.2095 106.833 64.0868 106.886 64.7154 106.63C65.712 106.228 66.9078 106.867 67.9299 106.387Z" fill="#E5D1FE" stroke="black" stroke-linecap="round" stroke-linejoin="round"/>
<path d="M57.187 37.8833C57.187 37.8833 58.3011 48.0868 58.3522 50.1062" stroke="black" stroke-linecap="round" stroke-linejoin="round"/>
<path d="M59.5883 37.9945L60.11 43.6168" stroke="black" stroke-linecap="round" stroke-linejoin="round"/>
<path d="M67.9142 35.8685L68.5888 42.4594L69.5342 42.5466L69.2276 35.9315L67.9142 35.8685Z" fill="#E5D1FE" stroke="black" stroke-linecap="round" stroke-linejoin="round"/>
<path opacity="0.2" d="M87.1132 108.31C87.0603 108.459 86.975 108.596 86.8628 108.712C85.0537 110.334 77.3318 112.136 70.6984 113.433V109.075L61.0447 106.731L59.5883 106.378L60.2424 99.5592L62.7414 73.5058L64.9236 32.9485L65.0156 31.2245L83.6943 30.4594C83.6943 30.4594 83.8067 31.762 83.9958 34.0381C85.2274 48.537 89.4589 102.591 87.1132 108.31Z" fill="black" fill-opacity="0.7"/>
<path d="M87.1143 108.31C87.0614 108.459 86.9761 108.596 86.8639 108.712C85.0548 110.334 77.3329 112.136 70.6995 113.433C65.2058 114.513 60.4786 115.245 60.4786 115.245C60.4786 115.245 56.84 86.5906 56.84 83.5785C56.84 80.5663 50.9731 31.8008 50.9731 31.8008L65.0371 31.2245L83.6954 30.4594C83.6954 30.4594 83.8078 31.762 83.9969 34.0381C85.2285 48.537 89.46 102.591 87.1143 108.31Z" stroke="black" stroke-linecap="round" stroke-linejoin="round"/>
<path d="M97.0125 173.332C97.1301 172.31 95.4334 157.652 95.4027 156.058C95.321 151.7 94.0178 145.981 94.0178 145.981C92.1985 141.574 90.7829 131.419 85.928 124.906C81.073 118.392 81.0781 110.731 80.2707 104.227C79.4632 97.7238 79.6626 98.2855 79.867 92.5131C80.0144 88.177 79.8111 83.8366 79.2588 79.5299C78.8551 75.6945 78.0477 68.9487 79.2588 65.8058C80.47 62.6629 83.6385 61.9317 87.1085 65.0794C90.5785 68.2272 91.9941 81.1328 91.9941 82.7261C91.9941 84.3193 91.9941 89.2976 93.2104 91.2153C93.2104 91.2153 100.084 87.8835 100.084 86.9634C100.084 86.0433 99.8795 77.9125 100.891 77.4766L96.849 65.0794L104.515 62.4983C105.958 63.7247 107.204 65.144 108.215 66.7114C109.08 68.0092 109.804 69.3867 110.376 70.8228C113.611 78.9536 118.809 84.6244 119.882 86.9634C120.955 89.3024 119.882 107.879 119.882 111.332C119.882 114.784 117.531 130.702 117.592 133.38C117.638 135.317 119.018 142.523 120.393 148.049C120.904 150.179 124.006 165.618 124.481 166.843L97.0125 173.332Z" fill="#F7D4C2"/>
<path opacity="0.7" d="M153.778 136.81C157.858 148.18 129.715 164.73 129.715 164.73C103.125 179.091 66.5913 166.658 58.4477 160.885C50.3041 155.111 42.6786 157.682 25.8477 153.009" stroke="black"/>
<path opacity="0.4" d="M103.063 76.6582C103.012 77.6994 104.326 85.9997 104.326 85.9997C105.235 88.0675 100.268 95.1184 100.268 95.1184C99.1947 95.6899 98.7348 99.2347 98.7348 99.2347C95.3721 98.5277 87.6706 91.191 87.6706 91.191C87.6706 91.191 86.761 94.1983 85.7389 101.642C84.7168 109.085 91.1968 126.765 93.9565 138.974C96.7161 151.182 95.4027 156.044 95.4027 156.044C95.321 151.686 94.0178 145.966 94.0178 145.966C92.1985 141.56 90.7829 131.405 85.928 124.891C81.073 118.378 81.0781 110.731 80.2707 104.227C79.4632 97.7238 79.6626 98.2855 79.867 92.5131C80.0144 88.177 79.8111 83.8366 79.2588 79.5299C78.8551 75.6945 78.0477 68.9487 79.2588 65.8058C80.47 62.6629 83.6385 61.9317 87.1085 65.0794C90.5785 68.2272 91.9941 81.1328 91.9941 82.7261C91.9941 84.3193 91.9941 89.2976 93.2104 91.2153C93.2104 91.2153 100.084 87.8835 100.084 86.9634C100.084 86.0433 99.8795 77.9125 100.891 77.4766L96.849 65.0794L104.515 62.4983C105.958 63.7247 107.204 65.144 108.215 66.7114C105.736 71.4088 103.114 76.0093 103.063 76.6582Z" fill="#E5D1FE"/>
<path opacity="0.4" d="M115.952 134.664C116.29 131.758 117.296 124.852 117.935 120.542C117.153 123.908 115.891 125.613 115.891 125.613C115.891 125.613 118.068 100.915 118.283 99.4091C118.497 97.903 120.695 91.133 119.887 86.9392C120.961 89.2734 119.887 107.855 119.887 111.307C119.887 114.76 117.537 130.678 117.598 133.356C117.644 135.293 119.836 147.637 121.211 153.163C118.257 149.095 115.615 137.584 115.952 134.664Z" fill="#E5D1FE"/>
<path d="M124.471 166.819C122.856 162.412 117.669 136.02 117.608 133.356C117.546 130.693 119.897 114.756 119.897 111.308C119.897 107.86 120.97 89.2736 119.897 86.9395C118.824 84.6053 113.627 78.9297 110.392 70.7989C109.169 67.6195 107.159 64.7647 104.53 62.4744L96.8645 65.0555L100.907 77.4527C99.8848 77.8885 100.099 86.0194 100.099 86.9395C100.099 87.8596 93.2258 91.1913 93.2258 91.1913C92.0096 89.2543 92.0095 84.2954 92.0095 82.7022C92.0095 81.1089 90.594 68.1984 87.124 65.0555C83.654 61.9126 80.4804 62.6342 79.2743 65.7819C78.0682 68.9296 78.8706 75.6706 79.2743 79.506C79.8274 83.8175 80.0307 88.1628 79.8825 92.5037C79.678 98.2762 79.4736 97.7047 80.2862 104.218C81.0987 110.731 81.0936 118.393 85.9434 124.906C90.7933 131.419 92.214 141.574 94.0333 145.981C94.0333 145.981 97.4675 169.502 97.028 173.333" stroke="black" stroke-linecap="round" stroke-linejoin="round"/>
<path d="M93.21 91.1913C93.21 91.1913 94.4211 96.5521 97.1501 99.2349" stroke="black" stroke-linecap="round" stroke-linejoin="round"/>
<path d="M93.9453 93.6367C93.9453 93.6367 99.0558 95.1191 101.192 95.2111" stroke="black" stroke-linecap="round" stroke-linejoin="round"/>
<path d="M100.084 86.9396C100.084 86.9396 103.722 85.3458 106.048 86.3049" stroke="black" stroke-linecap="round" stroke-linejoin="round"/>
<path d="M100.892 77.4535C100.892 77.4535 103.723 77.2064 104.326 75.8645" stroke="black" stroke-linecap="round" stroke-linejoin="round"/>
<path d="M86.863 126.272C86.863 126.272 92.3006 132.669 93.9155 135.923" stroke="black" stroke-linecap="round" stroke-linejoin="round"/>
<path d="M118.482 98.2759C117.572 103.356 116.356 117.245 115.952 119.734" stroke="black" stroke-linecap="round" stroke-linejoin="round"/>
<path d="M120.22 88.6974C120.373 93.2979 119.197 95.6902 119.197 95.6902" stroke="black" stroke-linecap="round" stroke-linejoin="round"/>
<path d="M78.4213 24.324L115.891 33.6897C115.891 33.6897 102.722 71.5641 100.049 76.2615L95.5822 109.279C95.5822 109.279 71.6449 108.281 60.637 105.129C60.637 105.129 67.5974 70.7457 67.9705 66.1597C68.3435 61.5737 78.4213 24.324 78.4213 24.324Z" fill="#E5D1FE"/>
<path d="M70.3612 64.1255L78.6197 30.6676C78.6197 30.6676 82.1714 28.9969 83.5462 27.4714L110.391 34.7064C110.391 34.7064 110.473 37.2003 112.011 38.7984L98.4636 75.7915L95.1776 103.061C95.1776 103.061 90.8081 103.39 90.3891 106.45C90.3891 106.45 76.2229 107.177 66.7226 104.804C66.7226 104.804 65.6034 101.496 63.8914 99.4043L70.3612 64.1255Z" stroke="black" stroke-linecap="round" stroke-linejoin="round"/>
<path d="M77.2342 65.8642C77.2342 65.8642 79.6719 57.1474 88.2575 58.7116C96.843 60.2757 91.9932 71.0168 91.9932 71.0168C91.9932 71.0168 92.0443 79.6851 85.0788 78.489C79.0382 77.4527 75.8186 74.3098 77.2342 65.8642Z" fill="#E5D1FE" stroke="black" stroke-linecap="round" stroke-linejoin="round"/>
<path d="M81.8853 33.8491C81.8853 33.8491 79.2892 43.8105 78.6198 45.7282" stroke="black" stroke-linecap="round" stroke-linejoin="round"/>
<path d="M84.108 34.7112L82.5953 40.1737" stroke="black" stroke-linecap="round" stroke-linejoin="round"/>
<path d="M103.063 38.5419L108.23 40.2659L107.662 41.801H106.047L102.608 41.0358L103.063 38.5419Z" fill="#E5D1FE" stroke="black" stroke-linecap="round" stroke-linejoin="round"/>
<path d="M102.205 41.8007L106.048 42.9484L106.855 43.7135L106.048 45.7281L101.597 44.2898L102.205 41.8007Z" fill="#E5D1FE" stroke="black" stroke-linecap="round" stroke-linejoin="round"/>
<path d="M101.597 45.2485L106.048 46.4108L105.419 47.9314H103.064L100.892 47.0694L101.597 45.2485Z" fill="#E5D1FE" stroke="black" stroke-linecap="round" stroke-linejoin="round"/>
<path d="M100.892 47.9318L104.326 49.2732V50.2272L103.467 50.9972L100.268 50.1352V48.5032L100.892 47.9318Z" fill="#E5D1FE" stroke="black" stroke-linecap="round" stroke-linejoin="round"/>
<path d="M103.819 52.2563V53.7478C103.845 53.9121 103.831 54.08 103.777 54.2381C103.723 54.3962 103.63 54.5401 103.507 54.6583C103.38 54.724 103.238 54.7584 103.093 54.7584C102.949 54.7584 102.806 54.724 102.679 54.6583C102.419 54.542 102.168 54.3677 101.923 54.266C101.121 53.9609 100.134 54.3435 99.3677 53.9367C99.3677 53.0118 99.0253 51.5444 100.231 51.5154C100.431 51.5299 103.819 52.5953 103.819 52.2563Z" fill="#E5D1FE" stroke="black" stroke-linecap="round" stroke-linejoin="round"/>
<path d="M102.403 55.9898C102.364 56.3312 102.299 56.6695 102.209 57.0019C102.096 57.4329 101.877 57.9124 101.422 58.0286C101.177 58.0671 100.926 58.0471 100.691 57.9705L97.8188 57.2538C97.9577 56.7442 98.1284 56.2429 98.3299 55.7525C98.7183 55.215 98.5854 55.2247 99.2651 55.1811C100.369 55.1375 101.268 56.1206 102.403 55.9898Z" fill="#E5D1FE" stroke="black" stroke-linecap="round" stroke-linejoin="round"/>
<path d="M92.7043 35.3844L90.9821 41.8009L91.8406 42.1835L93.9155 35.859L92.7043 35.3844Z" fill="#E5D1FE" stroke="black" stroke-linecap="round" stroke-linejoin="round"/>
<path d="M71.1225 78.4744L76.4272 79.777L75.9979 81.3461L74.3881 81.4817L70.8926 80.9925L71.1225 78.4744Z" fill="#E5D1FE" stroke="black" stroke-linecap="round" stroke-linejoin="round"/>
<path d="M70.5602 81.7915L74.4901 82.6244L75.3691 83.3218L74.7456 85.3944L70.182 84.3194L70.5602 81.7915Z" fill="#E5D1FE" stroke="black" stroke-linecap="round" stroke-linejoin="round"/>
<path d="M70.2694 85.2782L74.8074 86.0727L74.3168 87.6374L71.9711 87.8312L69.7277 87.1481L70.2694 85.2782Z" fill="#E5D1FE" stroke="black" stroke-linecap="round" stroke-linejoin="round"/>
<path d="M69.8042 88.0048L73.3509 89.0653L73.4377 90.0193L72.6507 90.8522L69.3851 90.2518L69.2369 88.6295L69.8042 88.0048Z" fill="#E5D1FE" stroke="black" stroke-linecap="round" stroke-linejoin="round"/>
<path d="M73.1107 92.0771L73.2486 93.5638C73.2906 93.7257 73.2916 93.8948 73.2516 94.0572C73.2117 94.2196 73.1318 94.3707 73.0187 94.4984C72.8983 94.574 72.7598 94.6194 72.6159 94.6304C72.472 94.6414 72.3275 94.6177 72.1959 94.5614C71.925 94.4694 71.6849 94.3144 71.4038 94.2369C70.581 93.9948 69.6305 94.4548 68.8486 94.111C68.7566 93.1909 68.2915 91.7575 69.4874 91.6461C69.6713 91.6364 73.1413 92.4161 73.1107 92.0771Z" fill="#E5D1FE" stroke="black" stroke-linecap="round" stroke-linejoin="round"/>
<path d="M72.0418 95.9125C72.0345 96.2647 72.0004 96.6159 71.9396 96.9634C71.8629 97.3992 71.6892 97.898 71.2497 98.0481C71.0082 98.1063 70.7552 98.1063 70.5138 98.0481L67.5906 97.5638C67.689 97.0435 67.8204 96.5292 67.9841 96.0239C68.3214 95.4573 68.1885 95.4767 68.8631 95.3798C69.9363 95.2297 70.9175 96.1353 72.0418 95.9125Z" fill="#E5D1FE" stroke="black" stroke-linecap="round" stroke-linejoin="round"/>
<path d="M93.2104 100.615C93.2104 100.615 94.4267 87.7622 94.4267 86.4692" stroke="black" stroke-linecap="round" stroke-linejoin="round"/>
<path d="M90.7827 100.038C90.7827 100.038 91.2942 93.3556 91.3863 92.1934" stroke="black" stroke-linecap="round" stroke-linejoin="round"/>
<path d="M81.3023 95.2104L79.6619 102.818H81.3023L82.4931 95.2104H81.3023Z" fill="#E5D1FE" stroke="black" stroke-linecap="round" stroke-linejoin="round"/>
<path opacity="0.2" d="M100.136 76.072C96.5889 75.3699 93.4255 74.3384 91.085 72.8517C91.085 72.8517 92.7816 77.4716 98.7966 85.3457L95.5617 109.278C95.5617 109.278 79.9391 108.629 68.1339 106.716C71.7623 97.0311 78.3548 78.6774 77.5729 75.0406C76.5151 70.0478 80.2508 64.1543 80.2508 64.1543C92.0611 62.1397 103.514 53.6796 111.373 46.527C107.372 57.7377 101.909 72.75 100.136 76.072Z" fill="black" fill-opacity="0.7"/>
<path d="M78.4213 24.324L115.891 33.6897C115.891 33.6897 102.722 71.5641 100.049 76.2615L95.5822 109.279C95.5822 109.279 71.6449 108.281 60.637 105.129C60.637 105.129 67.5974 70.7457 67.9705 66.1597C68.3435 61.5737 78.4213 24.324 78.4213 24.324Z" stroke="black" stroke-linecap="round" stroke-linejoin="round"/>
<path d="M99.1947 99.7191L93.9156 135.923C92.7402 133.555 89.5359 129.516 87.8802 127.497C87.2669 126.741 86.8581 126.271 86.8581 126.271L85.9228 124.906C81.073 118.392 81.073 110.731 80.2656 104.218C79.4581 97.7046 79.6574 98.276 79.8619 92.5035C80.0105 88.1708 79.8089 83.8336 79.2588 79.5301C78.8551 75.6947 78.0477 68.9488 79.2588 65.806C79.8516 64.266 80.9197 63.3071 82.2587 63.1038C83.5976 62.9004 85.3249 63.4815 87.1085 65.0796C90.5785 68.2224 91.9941 81.133 91.9941 82.7262C91.9941 84.3194 91.9941 89.2977 93.2104 91.2154C93.2104 91.1912 96.4708 97.0363 99.1947 99.7191Z" fill="#F6D4C2"/>
<path opacity="0.4" d="M85.5242 122.325C86.6281 123.661 87.3793 125.589 87.8802 127.497C87.2669 126.741 86.8581 126.272 86.8581 126.272L85.9228 124.906C81.073 118.393 81.073 110.732 80.2656 104.218C79.4581 97.7048 79.6574 98.2762 79.8619 92.5038C80.0105 88.1711 79.8089 83.8339 79.2588 79.5303C78.8551 75.6949 78.0477 68.9491 79.2588 65.8062C79.8516 64.2662 80.9197 63.3074 82.2587 63.104C84.8139 63.7917 87.3691 66.2566 88.2583 70.4745C89.7915 77.5545 82.877 71.8353 81.2774 77.8354C79.6779 83.8354 82.0031 85.4529 82.9588 86.9638C83.9144 88.4747 82.693 91.8064 81.2774 96.2811C79.8619 100.756 82.4937 118.649 85.5242 122.325Z" fill="#E5D1FE"/>
<path d="M99.1943 99.7191C96.4653 97.0363 93.21 91.1912 93.21 91.1912C91.9937 89.2541 91.9937 84.2952 91.9937 82.702C91.9937 81.1087 90.5781 68.1982 87.1081 65.0553C83.6381 61.9124 80.4645 62.634 79.2584 65.7817C78.0524 68.9295 78.8547 75.6704 79.2584 79.5058C79.8115 83.8173 80.0148 88.1626 79.8666 92.5035C79.6622 98.276 79.4577 97.7046 80.2703 104.218C81.0829 110.731 81.0778 118.392 85.9276 124.906L86.8628 126.271C86.8628 126.271 92.3003 132.669 93.9152 135.923" stroke="black" stroke-linecap="round" stroke-linejoin="round"/>
<path d="M81.3031 84.3976C81.3031 84.3976 85.9383 82.1256 88.2584 82.3193" stroke="black" stroke-linecap="round" stroke-linejoin="round"/>
<path d="M365.178 25.5533L308.288 49.6559C306.114 50.5766 305.141 52.998 306.113 55.0643L321.615 88.0106C322.588 90.0768 325.137 91.0055 327.311 90.0848L384.201 65.9821C386.375 65.0615 387.348 62.64 386.376 60.5738L370.874 27.6275C369.901 25.5612 367.352 24.6326 365.178 25.5533Z" stroke="#C081DD" stroke-linecap="round" stroke-linejoin="round"/>
<path d="M308.618 60.3821L373.377 32.9445" stroke="#C081DD" stroke-linecap="round" stroke-linejoin="round"/>
<path d="M371.338 45.595L360.877 50.0273L367.616 64.3499L378.077 59.9175L371.338 45.595Z" stroke="#C081DD" stroke-linecap="round" stroke-linejoin="round"/>
<path d="M366.015 51.3294C367.571 48.1209 371.863 48.8816 373.308 57.2162L377.146 57.9355L378.062 59.8873L367.609 64.3208L366.376 61.712L370.058 59.1228C370.058 59.1228 364.553 54.3544 366.015 51.3294Z" stroke="#C081DD" stroke-linecap="round" stroke-linejoin="round"/>
<path d="M347.586 75.7379C347.586 75.7379 355.498 73.7574 352.805 72.845C350.112 71.9326 349.337 70.5054 351.253 69.982C353.168 69.4585 357.402 72.1333 356.529 70.058C355.656 67.9827 357.449 69.0157 357.755 69.0863C358.06 69.1569 360.09 67.6966 360.273 67.9207C360.455 68.1447 360.503 68.8901 367.617 65.8813" stroke="#C081DD" stroke-linecap="round" stroke-linejoin="round"/>
<path d="M316.273 65.5763L347.985 52.1376" stroke="#C081DD" stroke-linecap="round" stroke-linejoin="round"/>
<path d="M317.887 68.9943L336.566 61.0771" stroke="#C081DD" stroke-linecap="round" stroke-linejoin="round"/>
<path d="M320.724 75.0234L346.78 63.9827" stroke="#C081DD" stroke-linecap="round" stroke-linejoin="round"/>
<path d="M322.392 49.2998L354.191 35.82" stroke="#C081DD" stroke-linecap="round" stroke-linejoin="round"/>
</svg>
