<svg width="486" height="370" viewBox="0 0 486 370" fill="none" xmlns="http://www.w3.org/2000/svg">
<path opacity="0.7" d="M238.749 46.9346C238.749 46.9346 180.866 28.4407 123.691 65.8475C66.5171 103.254 37.4059 172.998 12.4005 228.967C-12.6049 284.936 1.24937 339.751 44.5695 362.776C87.8895 385.802 117.678 346.873 178.675 341.794C239.671 336.715 256.016 344.975 306.838 306.226C357.661 267.476 367.33 181.855 327.793 120.996C288.256 60.136 238.749 46.9346 238.749 46.9346Z" fill="#F1C9FF"/>
<path d="M63.4468 41.4536C62.2527 40.3473 60.8141 39.5965 59.2721 39.2746C57.7301 38.9527 56.1375 39.0708 54.6502 39.6173C53.1629 40.1638 51.8319 41.12 50.7876 42.3922C49.7433 43.6645 49.0215 45.2092 48.6928 46.875C47.9461 46.0772 47.017 45.5095 46.0012 45.2303C44.9853 44.9511 43.9192 44.9703 42.9124 45.2862C41.9057 45.602 40.9946 46.2029 40.2728 47.0272C39.5511 47.8516 39.0446 48.8695 38.8056 49.9765C38.4793 49.4985 38.0541 49.1103 37.5642 48.8431C37.0743 48.5759 36.5334 48.4372 35.9851 48.4382C35.3787 48.4399 34.7827 48.6087 34.253 48.9288C34.0819 47.168 33.3409 45.5301 32.1617 44.3061C30.9826 43.0821 29.4416 42.3513 27.8126 42.2436C26.1836 42.1359 24.5723 42.6583 23.2648 43.7178C21.9573 44.7774 21.0385 46.3056 20.6716 48.0308C20.0415 47.3592 19.2427 46.9045 18.3753 46.7236C17.508 46.5428 16.6107 46.6439 15.7961 47.0143C14.9815 47.3846 14.2859 48.0078 13.7965 48.8055C13.3072 49.6032 13.0459 50.5399 13.0454 51.4981C13.0417 51.5563 13.0417 51.6146 13.0454 51.6728H77.58C77.3621 51.2915 77.0726 50.9644 76.7303 50.7127C76.388 50.461 76.0007 50.2904 75.5936 50.2119C75.1865 50.1335 74.7687 50.149 74.3675 50.2574C73.9662 50.3658 73.5906 50.5648 73.265 50.8413C72.9556 49.8476 72.3655 48.985 71.5785 48.376C70.7915 47.767 69.8476 47.4425 68.8809 47.4487C68.0759 47.4476 67.2841 47.671 66.5816 48.0973C66.5218 47.3623 66.3855 46.6371 66.1754 45.9354" stroke="#D496EA" stroke-miterlimit="10"/>
<path d="M225.015 101.294H93.3881V312.146H225.015V101.294Z" fill="#D496EA" stroke="#D496EA" stroke-linecap="round" stroke-linejoin="round"/>
<path d="M216.547 111.517H101.856V302.154H216.547V111.517Z" fill="#E5D1FE" stroke="#D496EA" stroke-linecap="round" stroke-linejoin="round"/>
<path d="M136.615 94.7756H181.79C183.486 94.7756 185.112 95.5065 186.311 96.8074C187.51 98.1084 188.184 99.8728 188.184 101.713V116.476H130.221V101.765C130.215 100.85 130.375 99.9419 130.694 99.0942C131.012 98.2465 131.482 97.4756 132.077 96.8259C132.671 96.1762 133.378 95.6605 134.157 95.3086C134.936 94.9568 135.771 94.7756 136.615 94.7756Z" fill="#D496EA" stroke="#D496EA" stroke-linecap="round" stroke-linejoin="round"/>
<path d="M155.295 85.9033H163.011C163.922 85.8922 164.827 86.078 165.671 86.4501C166.516 86.8221 167.284 87.3728 167.93 88.0702C168.577 88.7675 169.089 89.5974 169.436 90.5116C169.784 91.4258 169.96 92.406 169.955 93.3949V94.7551H148.458V93.3949C148.452 92.4157 148.625 91.445 148.966 90.5384C149.307 89.6317 149.81 88.807 150.445 88.1112C151.08 87.4154 151.835 86.8622 152.668 86.4834C153.5 86.1045 154.393 85.9074 155.295 85.9033Z" fill="#D496EA" stroke="#D496EA" stroke-linecap="round" stroke-linejoin="round"/>
<path d="M202.673 135.825L202.613 134.809L201.683 134.63C195.176 133.371 192.46 132.462 186.388 129.505L185.892 129.261L185.396 129.505C179.324 132.462 176.608 133.371 170.1 134.63L169.171 134.809L169.111 135.825C168.822 140.781 169.439 145.399 170.949 149.55C172.185 152.936 174.015 156.034 176.338 158.674C180.361 163.275 184.631 165.273 185.446 165.627L185.897 165.822L186.349 165.627C187.163 165.273 191.434 163.275 195.456 158.674C197.776 156.033 199.602 152.936 200.835 149.55C202.345 145.399 202.962 140.781 202.673 135.825ZM183.647 153.342L178.172 147.555L179.857 145.701L183.503 149.553L191.787 139.237L193.608 140.935L183.647 153.342Z" fill="#00B753"/>
<path d="M111.77 141.116H156.521" stroke="#D496EA" stroke-linecap="round" stroke-linejoin="round"/>
<path d="M111.77 151.182H156.521" stroke="#D496EA" stroke-linecap="round" stroke-linejoin="round"/>
<path d="M111.77 184.34H206.18" stroke="#D496EA" stroke-linecap="round" stroke-linejoin="round"/>
<path d="M123.238 193.809H112.32V206.239H123.238V193.809Z" stroke="#D496EA" stroke-linecap="round" stroke-linejoin="round"/>
<path d="M173.987 193.809H163.07V206.239H173.987V193.809Z" stroke="#D496EA" stroke-linecap="round" stroke-linejoin="round"/>
<path d="M127.597 206.239H154.341" stroke="#D496EA" stroke-linecap="round" stroke-linejoin="round"/>
<path d="M178.346 206.239H205.09" stroke="#D496EA" stroke-linecap="round" stroke-linejoin="round"/>
<path d="M123.238 218.083H112.32V230.513H123.238V218.083Z" stroke="#D496EA" stroke-linecap="round" stroke-linejoin="round"/>
<path d="M173.987 218.083H163.07V230.513H173.987V218.083Z" stroke="#D496EA" stroke-linecap="round" stroke-linejoin="round"/>
<path d="M127.597 230.513H154.341" stroke="#D496EA" stroke-linecap="round" stroke-linejoin="round"/>
<path d="M178.346 230.513H205.09" stroke="#D496EA" stroke-linecap="round" stroke-linejoin="round"/>
<path d="M123.238 242.357H112.32V254.788H123.238V242.357Z" stroke="#D496EA" stroke-linecap="round" stroke-linejoin="round"/>
<path d="M173.987 242.357H163.07V254.788H173.987V242.357Z" stroke="#D496EA" stroke-linecap="round" stroke-linejoin="round"/>
<path d="M127.597 254.788H154.341" stroke="#D496EA" stroke-linecap="round" stroke-linejoin="round"/>
<path d="M178.346 254.788H205.09" stroke="#D496EA" stroke-linecap="round" stroke-linejoin="round"/>
<path d="M123.238 266.632H112.32V279.062H123.238V266.632Z" stroke="#D496EA" stroke-linecap="round" stroke-linejoin="round"/>
<path d="M173.987 266.632H163.07V279.062H173.987V266.632Z" stroke="#D496EA" stroke-linecap="round" stroke-linejoin="round"/>
<path d="M127.597 279.062H154.341" stroke="#D496EA" stroke-linecap="round" stroke-linejoin="round"/>
<path d="M178.346 279.062H205.09" stroke="#D496EA" stroke-linecap="round" stroke-linejoin="round"/>
<path d="M118.168 349.24H56.8131V276.964L85.6401 244.608L118.168 276.964V349.24Z" fill="#F4D3FF" stroke="#D496EA" stroke-linecap="round" stroke-linejoin="round"/>
<path d="M319.389 349.241H172.361V194.722L257.216 156.284L319.389 194.722V349.241Z" fill="#F4D3FF" stroke="#D496EA" stroke-linecap="round" stroke-linejoin="round"/>
<path d="M191.981 263.34H115.444V349.338H191.981V263.34Z" fill="#E5D1FE" stroke="#D496EA" stroke-linecap="round" stroke-linejoin="round"/>
<path d="M280.327 276.965H238.284V349.338H280.327V276.965Z" fill="#6E00FF" stroke="#D496EA" stroke-linecap="round" stroke-linejoin="round"/>
<path d="M266.992 287.18H247.7V349.338H266.992V287.18Z" fill="#E5D1FE" stroke="#D496EA" stroke-linecap="round" stroke-linejoin="round"/>
<path d="M263.949 287.18H250.743V349.338H263.949V287.18Z" fill="#D496EA" stroke="#D496EA" stroke-linecap="round" stroke-linejoin="round"/>
<path d="M263.948 342.737H227.8V346.73H263.948V342.737Z" fill="#E5D1FE" stroke="#D496EA" stroke-linecap="round" stroke-linejoin="round"/>
<path d="M266.992 287.18H247.7V292.287H266.992V287.18Z" fill="#E5D1FE" stroke="#D496EA" stroke-linecap="round" stroke-linejoin="round"/>
<path d="M103.675 287.18H72.733V349.338H103.675V287.18Z" fill="#E5D1FE" stroke="#D496EA" stroke-linecap="round" stroke-linejoin="round"/>
<path d="M98.7879 287.18H77.6016V349.338H98.7879V287.18Z" fill="#D496EA" stroke="#D496EA" stroke-linecap="round" stroke-linejoin="round"/>
<path d="M103.675 287.18H72.733V292.287H103.675V287.18Z" fill="#E5D1FE" stroke="#D496EA" stroke-linecap="round" stroke-linejoin="round"/>
<path d="M213.427 275.503H188.839V323.788H213.427V275.503Z" fill="#6E00FF" stroke="#D496EA" stroke-linecap="round" stroke-linejoin="round"/>
<path d="M396.813 349.241H291.131V194.722L343.348 156.284L396.813 194.722V349.241Z" fill="#E5D1FE" stroke="#D496EA" stroke-linecap="round" stroke-linejoin="round"/>
<path d="M398.139 195.23L343.248 156.598L290.692 195.566V199.331L343.627 160.364L398.139 198.996V195.23Z" fill="#E5D1FE" stroke="#D496EA" stroke-linecap="round" stroke-linejoin="round"/>
<path d="M329.852 166.218L284.995 244.035L291.13 244.89L337.822 161.857L396.812 256.274L399.954 256.133L341.103 157.94L329.852 166.218Z" fill="#D496EA" stroke="#D496EA" stroke-linecap="round" stroke-linejoin="round"/>
<path d="M291.13 194.722H166.077L215.511 156.284L343.248 157.063L291.13 194.722Z" fill="#D496EA" stroke="#D496EA" stroke-linecap="round" stroke-linejoin="round"/>
<path d="M368.914 261.392H309.624V349.241H368.914V261.392Z" fill="#D496EA" stroke="#D496EA" stroke-linecap="round" stroke-linejoin="round"/>
<path d="M373.621 261.392H314.331V349.241H373.621V261.392Z" fill="#E5D1FE" stroke="#D496EA" stroke-linecap="round" stroke-linejoin="round"/>
<path d="M364.613 274.724H323.328V320.997H364.613V274.724Z" fill="#E5D1FE" stroke="#D496EA" stroke-width="2" stroke-linecap="round" stroke-linejoin="round"/>
<path d="M352.654 274.724H335.298V320.997H352.654V274.724Z" fill="#E5D1FE" stroke="#D496EA" stroke-width="2" stroke-linecap="round" stroke-linejoin="round"/>
<path d="M375.416 257.464H303.119V265.31H375.416V257.464Z" fill="#D496EA" stroke="#D496EA" stroke-linecap="round" stroke-linejoin="round"/>
<path d="M380.124 257.464H307.828V265.31H380.124V257.464Z" fill="#E5D1FE" stroke="#D496EA" stroke-linecap="round" stroke-linejoin="round"/>
<path d="M268.897 275.503H265.226V317.858H268.897V275.503Z" fill="#E5D1FE" stroke="#D496EA" stroke-linecap="round" stroke-linejoin="round"/>
<path d="M279.12 275.503H275.45V317.858H279.12V275.503Z" fill="#E5D1FE" stroke="#D496EA" stroke-linecap="round" stroke-linejoin="round"/>
<path d="M270.024 317.274H263.95V322.024H270.024V317.274Z" fill="#E5D1FE" stroke="#D496EA" stroke-linecap="round" stroke-linejoin="round"/>
<path d="M280.318 317.274H274.243V322.024H280.318V317.274Z" fill="#E5D1FE" stroke="#D496EA" stroke-linecap="round" stroke-linejoin="round"/>
<path d="M270.024 279.735H263.95V282.408H270.024V279.735Z" fill="#E5D1FE" stroke="#D496EA" stroke-linecap="round" stroke-linejoin="round"/>
<path d="M280.318 279.735H274.243V282.408H280.318V279.735Z" fill="#E5D1FE" stroke="#D496EA" stroke-linecap="round" stroke-linejoin="round"/>
<path d="M282.512 321.625H261.036V349.241H282.512V321.625Z" fill="#E5D1FE" stroke="#D496EA" stroke-linecap="round" stroke-linejoin="round"/>
<path d="M217.098 275.503H213.427V317.858H217.098V275.503Z" fill="#E5D1FE" stroke="#D496EA" stroke-linecap="round" stroke-linejoin="round"/>
<path d="M227.321 275.503H223.65V317.858H227.321V275.503Z" fill="#E5D1FE" stroke="#D496EA" stroke-linecap="round" stroke-linejoin="round"/>
<path d="M218.225 317.274H212.15V322.024H218.225V317.274Z" fill="#E5D1FE" stroke="#D496EA" stroke-linecap="round" stroke-linejoin="round"/>
<path d="M228.519 317.274H222.445V322.024H228.519V317.274Z" fill="#E5D1FE" stroke="#D496EA" stroke-linecap="round" stroke-linejoin="round"/>
<path d="M218.225 279.735H212.15V282.408H218.225V279.735Z" fill="#E5D1FE" stroke="#D496EA" stroke-linecap="round" stroke-linejoin="round"/>
<path d="M228.519 279.735H222.445V282.408H228.519V279.735Z" fill="#E5D1FE" stroke="#D496EA" stroke-linecap="round" stroke-linejoin="round"/>
<path d="M230.723 321.625H209.247V349.241H230.723V321.625Z" fill="#E5D1FE" stroke="#D496EA" stroke-linecap="round" stroke-linejoin="round"/>
<path d="M209.776 321.625H183.592V349.241H209.776V321.625Z" fill="#F4D3FF" stroke="#D496EA" stroke-linecap="round" stroke-linejoin="round"/>
<path d="M282.521 279.432H201.546L215.282 271.586H282.521V279.432Z" fill="#E5D1FE" stroke="#D496EA" stroke-linecap="round" stroke-linejoin="round"/>
<path d="M323.728 286.487H364.215" stroke="#D496EA" stroke-linecap="round" stroke-linejoin="round"/>
<path d="M323.728 297.471H364.215" stroke="#D496EA" stroke-linecap="round" stroke-linejoin="round"/>
<path d="M323.728 308.455H364.215" stroke="#D496EA" stroke-linecap="round" stroke-linejoin="round"/>
<path d="M82.0596 243.115L52.7139 277.646H55.1677L83.9847 244.608L82.0596 243.115Z" fill="#D496EA" stroke="#D496EA" stroke-linecap="round" stroke-linejoin="round"/>
<path d="M113.091 276.11H193.547L253.824 243.115H82.0593L113.091 276.11Z" fill="#D496EA" stroke="#D496EA" stroke-linecap="round" stroke-linejoin="round"/>
<path d="M295.708 243.115H249.116L166.077 276.11H207.671L295.708 243.115Z" fill="#D496EA" stroke="#D496EA" stroke-linecap="round" stroke-linejoin="round"/>
<path d="M399.954 246.783L345.222 155.678C345.007 155.312 344.709 155.012 344.357 154.806C344.005 154.6 343.61 154.496 343.211 154.502C342.811 154.509 342.419 154.626 342.073 154.843C341.726 155.06 341.437 155.37 341.232 155.743L291.987 243.981L196.688 277.246V282.581L294.221 248.59C294.77 248.416 295.242 248.032 295.548 247.508L343.317 161.889L399.954 256.165V246.783Z" fill="#E5D1FE" stroke="#D496EA" stroke-linecap="round" stroke-linejoin="round"/>
<path d="M276.497 200.468H259.869V230.27H276.497V200.468Z" stroke="#D496EA" stroke-width="2" stroke-linecap="round" stroke-linejoin="round"/>
<path d="M268.178 201.258V229.491" stroke="#D496EA" stroke-linecap="round" stroke-linejoin="round"/>
<path d="M276.128 215.369H260.228" stroke="#D496EA" stroke-linecap="round" stroke-linejoin="round"/>
<path d="M159.484 287.602H142.856V317.404H159.484V287.602Z" stroke="#D496EA" stroke-width="2" stroke-linecap="round" stroke-linejoin="round"/>
<path d="M151.165 288.381V316.625" stroke="#D496EA" stroke-linecap="round" stroke-linejoin="round"/>
<path d="M159.124 302.503H143.214" stroke="#D496EA" stroke-linecap="round" stroke-linejoin="round"/>
<path d="M350.979 199.905H334.351V229.707H350.979V199.905Z" stroke="#D496EA" stroke-width="2" stroke-linecap="round" stroke-linejoin="round"/>
<path d="M342.659 200.684V228.928" stroke="#D496EA" stroke-linecap="round" stroke-linejoin="round"/>
<path d="M350.609 214.806H334.71" stroke="#D496EA" stroke-linecap="round" stroke-linejoin="round"/>
<path d="M240.947 200.468H224.319V230.27H240.947V200.468Z" stroke="#D496EA" stroke-width="2" stroke-linecap="round" stroke-linejoin="round"/>
<path d="M232.628 201.258V229.491" stroke="#D496EA" stroke-linecap="round" stroke-linejoin="round"/>
<path d="M240.587 215.369H224.678" stroke="#D496EA" stroke-linecap="round" stroke-linejoin="round"/>
<path d="M205.397 200.468H188.769V230.27H205.397V200.468Z" stroke="#D496EA" stroke-width="2" stroke-linecap="round" stroke-linejoin="round"/>
<path d="M197.089 201.258V229.491" stroke="#D496EA" stroke-linecap="round" stroke-linejoin="round"/>
<path d="M205.038 215.369H189.128" stroke="#D496EA" stroke-linecap="round" stroke-linejoin="round"/>
<path d="M131.544 264.195H122.128L111.146 252.27H120.562L131.544 264.195Z" fill="#E5D1FE"/>
<path d="M160.58 264.195H151.164L140.182 252.27H149.598L160.58 264.195Z" fill="#E5D1FE"/>
<path d="M82.0893 296.54H78.6779V308.465H82.0893V296.54Z" fill="#6E00FF" stroke="#D496EA" stroke-linecap="round" stroke-linejoin="round"/>
<path d="M85.8805 296.54H82.4692V308.465H85.8805V296.54Z" fill="#6E00FF" stroke="#D496EA" stroke-linecap="round" stroke-linejoin="round"/>
<path d="M89.6798 296.54H86.2585V308.465H89.6798V296.54Z" fill="#6E00FF" stroke="#D496EA" stroke-linecap="round" stroke-linejoin="round"/>
<path d="M93.4808 296.54H90.0594V308.465H93.4808V296.54Z" fill="#6E00FF" stroke="#D496EA" stroke-linecap="round" stroke-linejoin="round"/>
<path d="M97.2612 296.54H93.8499V308.465H97.2612V296.54Z" fill="#6E00FF" stroke="#D496EA" stroke-linecap="round" stroke-linejoin="round"/>
<path d="M196.689 276.575H112.303V282.581H196.689V276.575Z" fill="#E5D1FE" stroke="#D496EA" stroke-linecap="round" stroke-linejoin="round"/>
<path d="M196.689 276.575H165.02V282.581H196.689V276.575Z" fill="#D496EA" stroke="#D496EA" stroke-linecap="round" stroke-linejoin="round"/>
<path d="M112.303 276.575L82.0596 243.115L52.7139 277.646H56.8135L82.1693 248.32L112.303 282.581V276.575Z" fill="#D496EA" stroke="#D496EA" stroke-linecap="round" stroke-linejoin="round"/>
<path d="M263.948 345.604H227.8V349.338H263.948V345.604Z" fill="#E5D1FE" stroke="#D496EA" stroke-linecap="round" stroke-linejoin="round"/>
<path d="M290.692 195.565H165.599V199.32H290.692V195.565Z" fill="#D496EA" stroke="#D496EA" stroke-linecap="round" stroke-linejoin="round"/>
<path d="M406.137 349.121C406.137 349.121 397.539 339.793 399.953 332.694C402.367 325.595 408.93 336.06 408.93 336.06C408.93 336.06 409.618 319.633 414.436 319.633C419.254 319.633 418.227 333.441 418.227 333.441C418.227 333.441 420.97 329.708 424.072 331.948C427.174 334.188 424.411 345.756 424.411 345.756C424.411 345.756 426.476 335.681 430.954 335.681C435.433 335.681 431.293 348.742 431.293 348.742" fill="#00B753"/>
<path d="M404.082 348.743C404.082 348.743 398.576 340.54 400.292 339.003C402.008 337.467 404.421 341.99 404.421 341.99C404.421 341.99 402.706 331.169 408.202 330.79C413.698 330.411 411.643 343.851 411.643 343.851C411.643 343.851 414.396 335.638 417.149 337.878C419.902 340.118 418.875 346.838 418.875 346.838C418.875 346.838 419.214 341.243 422.655 341.243C426.096 341.243 428.161 345.713 428.161 345.713C428.161 345.713 431.253 340.118 433.667 341.99C436.081 343.862 433.667 349.078 433.667 349.078" stroke="#263238" stroke-linecap="round" stroke-linejoin="round"/>
<path d="M297.153 349.121C297.153 349.121 291.059 342.509 292.764 337.488C294.47 332.467 299.098 339.869 299.098 339.869C299.098 339.869 299.587 328.225 302.998 328.225C306.41 328.225 305.682 338.019 305.682 338.019C305.682 338.019 307.677 335.367 309.831 336.936C311.986 338.506 310.071 346.676 310.071 346.676C310.071 346.676 311.537 339.534 314.699 339.534C317.861 339.534 314.948 348.786 314.948 348.786" fill="#00B753"/>
<path d="M295.688 348.851C295.688 348.851 291.788 343.04 293.015 341.979C294.242 340.919 295.937 344.144 295.937 344.144C295.937 344.144 294.72 336.471 298.62 336.212C302.521 335.952 301.054 345.464 301.054 345.464C301.054 345.464 302.999 339.642 304.954 341.233C306.909 342.823 306.171 347.574 306.171 347.574C306.171 347.574 306.421 343.613 308.855 343.613C311.288 343.613 312.755 346.784 312.755 346.784C312.755 346.784 314.949 342.813 316.655 344.144C318.36 345.475 316.655 349.165 316.655 349.165" stroke="#263238" stroke-linecap="round" stroke-linejoin="round"/>
<path d="M34.0101 349.122C34.0101 349.122 27.6263 342.196 29.4118 336.926C31.1972 331.656 36.0549 339.415 36.0549 339.415C36.0549 339.415 36.5736 327.23 40.1446 327.23C43.7155 327.23 42.9574 337.478 42.9574 337.478C42.9574 337.478 44.9524 334.708 47.2965 336.396C49.6405 338.084 47.5558 346.644 47.5558 346.644C47.5558 346.644 49.0819 339.166 52.4035 339.166C55.7251 339.166 52.6629 348.905 52.6629 348.905" fill="#00B753"/>
<path d="M32.4837 348.84C32.4837 348.84 28.3941 342.747 29.6708 341.633C30.9476 340.518 32.7331 343.851 32.7331 343.851C32.7331 343.851 31.4563 335.822 35.546 335.54C39.6356 335.259 38.0995 345.28 38.0995 345.28C38.0995 345.28 40.0944 339.187 42.1891 340.843C44.2838 342.499 43.4659 347.498 43.4659 347.498C43.4659 347.498 43.7252 343.343 46.2788 343.343C48.8323 343.343 50.3684 346.665 50.3684 346.665C50.3684 346.665 52.6626 342.509 54.4481 343.894C56.2335 345.28 54.4481 349.165 54.4481 349.165" stroke="#263238" stroke-linecap="round" stroke-linejoin="round"/>
<path d="M47.3196 349.284H457.281" stroke="#263238" stroke-linecap="round" stroke-linejoin="round"/>
<path opacity="0.3" d="M454.479 34.231C454.479 34.231 447.776 -1.30843 425.432 1.11891C415.279 2.20741 408.486 7.73696 402.597 16.3578C395.041 27.3625 392.332 20.9622 381.527 24.576C371.854 27.8415 373.339 36.6909 367.38 38.3019C361.42 39.9129 356.965 32.6526 348.768 34.2636C340.571 35.8746 336.116 44.7676 336.116 44.7676H485C484.612 41.7462 483.419 38.9136 481.567 36.6181C479.715 34.3227 477.285 32.6644 474.575 31.8471C464.903 28.5817 460.428 36.6583 454.479 34.231Z" stroke="#D496EA" stroke-miterlimit="10"/>
</svg>
