<svg width="60" height="60" viewBox="0 0 60 60" fill="none" xmlns="http://www.w3.org/2000/svg">
<circle cx="30" cy="30" r="29.4" fill="white" stroke="#474747" stroke-width="1.2"/>
<path d="M18 28.8C17.3373 28.8 16.8 29.3373 16.8 30C16.8 30.6627 17.3373 31.2 18 31.2V28.8ZM42.8485 30.8485C43.3172 30.3799 43.3172 29.6201 42.8485 29.1515L35.2118 21.5147C34.7431 21.0461 33.9833 21.0461 33.5147 21.5147C33.0461 21.9833 33.0461 22.7431 33.5147 23.2118L40.3029 30L33.5147 36.7882C33.0461 37.2569 33.0461 38.0167 33.5147 38.4853C33.9833 38.9539 34.7431 38.9539 35.2118 38.4853L42.8485 30.8485ZM18 31.2H42V28.8H18V31.2Z" fill="#474747"/>
</svg>
